<svg id="Group_53229" data-name="Group 53229" xmlns="http://www.w3.org/2000/svg" width="47.193" height="47.193" viewBox="0 0 47.193 47.193">
  <path id="Path_47135" data-name="Path 47135" d="M110.387,0,95.6,23.6l14.785,23.6a23.6,23.6,0,0,0,0-47.193Z" transform="translate(-86.79)" fill="#e53642"/>
  <path id="Path_47136" data-name="Path 47136" d="M0,23.6a23.6,23.6,0,0,0,23.6,23.6V0A23.6,23.6,0,0,0,0,23.6Z" fill="#e53642"/>
  <path id="Path_47137" data-name="Path 47137" d="M196.276,60l-6.064,9.678,6.064,9.678a9.678,9.678,0,0,0,0-19.357Z" transform="translate(-172.68 -54.469)" fill="#f2f2f2"/>
  <path id="Path_47138" data-name="Path 47138" d="M151,69.678a9.678,9.678,0,0,0,9.678,9.678V60A9.678,9.678,0,0,0,151,69.678Z" transform="translate(-137.081 -54.469)" fill="#fff"/>
  <path id="Path_47139" data-name="Path 47139" d="M217.075,303.267A9.687,9.687,0,0,0,209.826,300h-8.3L196,307.005l5.53,7.005a18.115,18.115,0,0,0,15.711-9.143l.489-.86Z" transform="translate(-177.933 -272.348)" fill="#f2f2f2"/>
  <path id="Path_47140" data-name="Path 47140" d="M88.146,300a9.687,9.687,0,0,0-7.249,3.267l-.655.741.489.86a18.115,18.115,0,0,0,15.711,9.143V300Z" transform="translate(-72.844 -272.348)" fill="#fff"/>
</svg>
