<svg xmlns="http://www.w3.org/2000/svg" width="27.828" height="27.822" viewBox="0 0 27.828 27.822">
  <path id="instagram" d="M13.842,38.6a7.133,7.133,0,1,0,7.133,7.133A7.122,7.122,0,0,0,13.842,38.6Zm0,11.771a4.638,4.638,0,1,1,4.638-4.638A4.646,4.646,0,0,1,13.842,50.374Zm9.089-12.063a1.664,1.664,0,1,1-1.664-1.664A1.66,1.66,0,0,1,22.931,38.311ZM27.656,40a8.234,8.234,0,0,0-2.247-5.83,8.288,8.288,0,0,0-5.83-2.247c-2.3-.13-9.182-.13-11.479,0a8.276,8.276,0,0,0-5.83,2.241,8.261,8.261,0,0,0-2.247,5.83c-.13,2.3-.13,9.182,0,11.479A8.234,8.234,0,0,0,2.27,57.3,8.3,8.3,0,0,0,8.1,59.549c2.3.13,9.182.13,11.479,0a8.234,8.234,0,0,0,5.83-2.247,8.288,8.288,0,0,0,2.247-5.83C27.786,49.175,27.786,42.3,27.656,40ZM24.688,53.937a4.7,4.7,0,0,1-2.645,2.645c-1.831.726-6.177.559-8.2.559s-6.376.161-8.2-.559A4.7,4.7,0,0,1,3,53.937c-.726-1.831-.559-6.177-.559-8.2s-.161-6.376.559-8.2A4.7,4.7,0,0,1,5.641,34.89c1.831-.726,6.177-.559,8.2-.559s6.376-.161,8.2.559a4.7,4.7,0,0,1,2.645,2.645c.726,1.831.559,6.177.559,8.2S25.415,52.112,24.688,53.937Z" transform="translate(0.075 -31.825)" fill="#fff"/>
</svg>
