<svg xmlns="http://www.w3.org/2000/svg" width="25" height="25" viewBox="0 0 25 25">
  <g id="Group_81950" data-name="Group 81950" transform="translate(-1198 -987)">
    <g id="Rectangle_14052" data-name="Rectangle 14052" transform="translate(1198 987)" fill="#fff" stroke="#acacac" stroke-width="1">
      <rect width="25" height="25" rx="3" stroke="none"/>
      <rect x="0.5" y="0.5" width="24" height="24" rx="2.5" fill="none"/>
    </g>
    <path id="flaticon1548338492-svg" d="M.17,9.237a.548.548,0,0,1,0-.794l.794-.794a.548.548,0,0,1,.794,0l.057.057,3.119,3.345a.274.274,0,0,0,.4,0l7.6-7.881h.057a.548.548,0,0,1,.794,0l.794.794a.548.548,0,0,1,0,.794h0L5.5,14.17a.548.548,0,0,1-.794,0L.284,9.407.17,9.237Z" transform="translate(1203.35 991.049)" fill="#e53642"/>
  </g>
</svg>
