<svg xmlns="http://www.w3.org/2000/svg" width="39.627" height="25.055" viewBox="0 0 39.627 25.055">
  <g id="Icon_feather-eye" data-name="Icon feather-eye" transform="translate(0.5 0.555)">
    <g id="Icon_feather-eye-off" data-name="Icon feather-eye-off" transform="translate(0 -4.5)">
      <path id="Path_115945" data-name="Path 115945" d="M31.243,26.91A19.686,19.686,0,0,1,20.813,30C8.523,30,1.5,18,1.5,18a29.373,29.373,0,0,1,8.884-8.91m6.742-2.73A18.628,18.628,0,0,1,20.813,6C33.1,6,40.127,18,40.127,18a27.969,27.969,0,0,1-3.792,4.785m-11.8-1.6a5.867,5.867,0,0,1-5.157,1.292,4.944,4.944,0,0,1-3.8-3.247,4.1,4.1,0,0,1,1.513-4.406" transform="translate(-1.5 -1.5)" fill="none" stroke="#000" stroke-linecap="round" stroke-linejoin="round" stroke-width="1"/>
      <path id="Path_115946" data-name="Path 115946" d="M7.257,6.15,34.368,29.334" transform="translate(-1.5 -1.5)" fill="none" stroke="#000" stroke-linecap="round" stroke-linejoin="round" stroke-width="1"/>
    </g>
  </g>
</svg>
